<?xml version="1.0" encoding="UTF-8" standalone="no"?>
<!DOCTYPE svg PUBLIC "-//W3C//DTD SVG 1.1//EN"
 "http://www.w3.org/Graphics/SVG/1.1/DTD/svg11.dtd">
<!-- Generated by graphviz version 2.40.1 (20161225.0304)
 -->
<!-- Title: dependencies Pages: 1 -->
<svg width="504pt" height="211pt"
 viewBox="0.00 0.00 504.00 211.00" xmlns="http://www.w3.org/2000/svg" xmlns:xlink="http://www.w3.org/1999/xlink">
<g id="graph0" class="graph" transform="scale(1 1) rotate(0) translate(4 207)">
<title>dependencies</title>
<polygon fill="#ffffff" stroke="transparent" points="-4,4 -4,-207 500,-207 500,4 -4,4"/>
<text text-anchor="start" x="227.0091" y="-42.4" font-family="sans-serif" font-weight="bold" font-size="14.00" fill="#000000">Legend</text>
<polygon fill="#ffffb3" stroke="transparent" points="14,-10 14,-30 34,-30 34,-10 14,-10"/>
<text text-anchor="start" x="37.629" y="-15.4" font-family="sans-serif" font-size="14.00" fill="#000000"> &#160;Declarations</text>
<polygon fill="#8dd3c7" stroke="transparent" points="127,-10 127,-30 147,-30 147,-10 127,-10"/>
<text text-anchor="start" x="150.7251" y="-15.4" font-family="sans-serif" font-size="14.00" fill="#000000"> &#160;Module</text>
<polygon fill="#80b1d3" stroke="transparent" points="213,-10 213,-30 233,-30 233,-10 213,-10"/>
<text text-anchor="start" x="236.7812" y="-15.4" font-family="sans-serif" font-size="14.00" fill="#000000"> &#160;Bootstrap</text>
<polygon fill="#fdb462" stroke="transparent" points="310,-10 310,-30 330,-30 330,-10 310,-10"/>
<text text-anchor="start" x="333.6732" y="-15.4" font-family="sans-serif" font-size="14.00" fill="#000000"> &#160;Providers</text>
<polygon fill="#fb8072" stroke="transparent" points="406,-10 406,-30 426,-30 426,-10 406,-10"/>
<text text-anchor="start" x="429.7258" y="-15.4" font-family="sans-serif" font-size="14.00" fill="#000000"> &#160;Exports</text>
<g id="clust1" class="cluster">
<title>cluster_Tab3PageModule</title>
<polygon fill="none" stroke="#000000" stroke-dasharray="1,5" points="109,-70 109,-195 387,-195 387,-70 109,-70"/>
</g>
<g id="clust2" class="cluster">
<title>cluster_Tab3PageModule_declarations</title>
<polygon fill="none" stroke="#000000" points="291,-78 291,-130 379,-130 379,-78 291,-78"/>
</g>
<g id="clust7" class="cluster">
<title>cluster_Tab3PageModule_providers</title>
<polygon fill="none" stroke="#000000" points="117,-78 117,-130 283,-130 283,-78 117,-78"/>
</g>
<!-- Tab3Page -->
<g id="node1" class="node">
<title>Tab3Page</title>
<polygon fill="#ffffb3" stroke="#000000" points="370.979,-122 299.021,-122 299.021,-86 370.979,-86 370.979,-122"/>
<text text-anchor="middle" x="335" y="-99.8" font-family="Times,serif" font-size="14.00" fill="#000000">Tab3Page</text>
</g>
<!-- Tab3PageModule -->
<g id="node2" class="node">
<title>Tab3PageModule</title>
<polygon fill="#8dd3c7" stroke="#000000" points="317.5298,-187 314.5298,-191 293.5298,-191 290.5298,-187 202.4702,-187 202.4702,-151 317.5298,-151 317.5298,-187"/>
<text text-anchor="middle" x="260" y="-164.8" font-family="Times,serif" font-size="14.00" fill="#000000">Tab3PageModule</text>
</g>
<!-- Tab3Page&#45;&gt;Tab3PageModule -->
<g id="edge1" class="edge">
<title>Tab3Page&#45;&gt;Tab3PageModule</title>
<path fill="none" stroke="#000000" d="M308.3875,-122.1061C308.3875,-122.1061 308.3875,-140.991 308.3875,-140.991"/>
<polygon fill="#000000" stroke="#000000" points="304.8875,-140.9909 308.3875,-150.991 311.8875,-140.991 304.8875,-140.9909"/>
</g>
<!-- LinkedinService -->
<g id="node3" class="node">
<title>LinkedinService</title>
<ellipse fill="#fdb462" stroke="#000000" cx="200" cy="-104" rx="74.7188" ry="18"/>
<text text-anchor="middle" x="200" y="-99.8" font-family="Times,serif" font-size="14.00" fill="#000000">LinkedinService</text>
</g>
<!-- LinkedinService&#45;&gt;Tab3PageModule -->
<g id="edge2" class="edge">
<title>LinkedinService&#45;&gt;Tab3PageModule</title>
<path fill="none" stroke="#000000" d="M238.5474,-119.7347C238.5474,-119.7347 238.5474,-140.6451 238.5474,-140.6451"/>
<polygon fill="#000000" stroke="#000000" points="235.0475,-140.645 238.5474,-150.6451 242.0475,-140.6451 235.0475,-140.645"/>
</g>
</g>
</svg>
