<?xml version="1.0" encoding="UTF-8" standalone="no"?>
<!DOCTYPE svg PUBLIC "-//W3C//DTD SVG 1.1//EN"
 "http://www.w3.org/Graphics/SVG/1.1/DTD/svg11.dtd">
<!-- Generated by graphviz version 2.40.1 (20161225.0304)
 -->
<!-- Title: dependencies Pages: 1 -->
<svg width="504pt" height="284pt"
 viewBox="0.00 0.00 504.00 284.00" xmlns="http://www.w3.org/2000/svg" xmlns:xlink="http://www.w3.org/1999/xlink">
<g id="graph0" class="graph" transform="scale(1 1) rotate(0) translate(4 280)">
<title>dependencies</title>
<polygon fill="#ffffff" stroke="transparent" points="-4,4 -4,-280 500,-280 500,4 -4,4"/>
<text text-anchor="start" x="227.0091" y="-42.4" font-family="sans-serif" font-weight="bold" font-size="14.00" fill="#000000">Legend</text>
<polygon fill="#ffffb3" stroke="transparent" points="14,-10 14,-30 34,-30 34,-10 14,-10"/>
<text text-anchor="start" x="37.629" y="-15.4" font-family="sans-serif" font-size="14.00" fill="#000000"> &#160;Declarations</text>
<polygon fill="#8dd3c7" stroke="transparent" points="127,-10 127,-30 147,-30 147,-10 127,-10"/>
<text text-anchor="start" x="150.7251" y="-15.4" font-family="sans-serif" font-size="14.00" fill="#000000"> &#160;Module</text>
<polygon fill="#80b1d3" stroke="transparent" points="213,-10 213,-30 233,-30 233,-10 213,-10"/>
<text text-anchor="start" x="236.7812" y="-15.4" font-family="sans-serif" font-size="14.00" fill="#000000"> &#160;Bootstrap</text>
<polygon fill="#fdb462" stroke="transparent" points="310,-10 310,-30 330,-30 330,-10 310,-10"/>
<text text-anchor="start" x="333.6732" y="-15.4" font-family="sans-serif" font-size="14.00" fill="#000000"> &#160;Providers</text>
<polygon fill="#fb8072" stroke="transparent" points="406,-10 406,-30 426,-30 426,-10 406,-10"/>
<text text-anchor="start" x="429.7258" y="-15.4" font-family="sans-serif" font-size="14.00" fill="#000000"> &#160;Exports</text>
<g id="clust1" class="cluster">
<title>cluster_ComponentsModule</title>
<polygon fill="none" stroke="#000000" stroke-dasharray="1,5" points="35,-70 35,-268 461,-268 461,-70 35,-70"/>
</g>
<g id="clust2" class="cluster">
<title>cluster_ComponentsModule_declarations</title>
<polygon fill="none" stroke="#000000" points="48,-78 48,-130 447,-130 447,-78 48,-78"/>
</g>
<g id="clust7" class="cluster">
<title>cluster_ComponentsModule_exports</title>
<polygon fill="none" stroke="#000000" points="43,-208 43,-260 453,-260 453,-208 43,-208"/>
</g>
<!-- ChartComponent -->
<g id="node1" class="node">
<title>ChartComponent</title>
<polygon fill="#ffffb3" stroke="#000000" points="439.4356,-122 326.5644,-122 326.5644,-86 439.4356,-86 439.4356,-122"/>
<text text-anchor="middle" x="383" y="-99.8" font-family="Times,serif" font-size="14.00" fill="#000000">ChartComponent</text>
</g>
<!-- ComponentsModule -->
<g id="node4" class="node">
<title>ComponentsModule</title>
<polygon fill="#8dd3c7" stroke="#000000" points="313.3272,-187 310.3272,-191 289.3272,-191 286.3272,-187 182.6728,-187 182.6728,-151 313.3272,-151 313.3272,-187"/>
<text text-anchor="middle" x="248" y="-164.8" font-family="Times,serif" font-size="14.00" fill="#000000">ComponentsModule</text>
</g>
<!-- ChartComponent&#45;&gt;ComponentsModule -->
<g id="edge1" class="edge">
<title>ChartComponent&#45;&gt;ComponentsModule</title>
<path fill="none" stroke="#000000" d="M402.4891,-122.0225C402.4891,-139.3734 402.4891,-163 402.4891,-163 402.4891,-163 323.5173,-163 323.5173,-163"/>
<polygon fill="#000000" stroke="#000000" points="323.5173,-159.5001 313.5173,-163 323.5173,-166.5001 323.5173,-159.5001"/>
</g>
<!-- HeaderComponent -->
<g id="node2" class="node">
<title>HeaderComponent</title>
<polygon fill="#ffffb3" stroke="#000000" points="308.7437,-122 187.2563,-122 187.2563,-86 308.7437,-86 308.7437,-122"/>
<text text-anchor="middle" x="248" y="-99.8" font-family="Times,serif" font-size="14.00" fill="#000000">HeaderComponent</text>
</g>
<!-- HeaderComponent&#45;&gt;ComponentsModule -->
<g id="edge2" class="edge">
<title>HeaderComponent&#45;&gt;ComponentsModule</title>
<path fill="none" stroke="#000000" d="M248,-122.1061C248,-122.1061 248,-140.991 248,-140.991"/>
<polygon fill="#000000" stroke="#000000" points="244.5001,-140.9909 248,-150.991 251.5001,-140.991 244.5001,-140.9909"/>
</g>
<!-- TableComponent -->
<g id="node3" class="node">
<title>TableComponent</title>
<polygon fill="#ffffb3" stroke="#000000" points="169.705,-122 56.295,-122 56.295,-86 169.705,-86 169.705,-122"/>
<text text-anchor="middle" x="113" y="-99.8" font-family="Times,serif" font-size="14.00" fill="#000000">TableComponent</text>
</g>
<!-- TableComponent&#45;&gt;ComponentsModule -->
<g id="edge3" class="edge">
<title>TableComponent&#45;&gt;ComponentsModule</title>
<path fill="none" stroke="#000000" d="M130.3675,-122.0225C130.3675,-139.3734 130.3675,-163 130.3675,-163 130.3675,-163 172.6479,-163 172.6479,-163"/>
<polygon fill="#000000" stroke="#000000" points="172.6479,-166.5001 182.6479,-163 172.6478,-159.5001 172.6479,-166.5001"/>
</g>
<!-- ChartComponent  -->
<g id="node5" class="node">
<title>ChartComponent </title>
<polygon fill="#fb8072" stroke="#000000" points="444.9348,-252 329.0652,-252 329.0652,-216 444.9348,-216 444.9348,-252"/>
<text text-anchor="middle" x="387" y="-229.8" font-family="Times,serif" font-size="14.00" fill="#000000">ChartComponent </text>
</g>
<!-- ComponentsModule&#45;&gt;ChartComponent  -->
<g id="edge4" class="edge">
<title>ComponentsModule&#45;&gt;ChartComponent </title>
<path fill="none" stroke="#000000" stroke-dasharray="5,2" d="M313.4234,-175C340.5285,-175 365.7609,-175 365.7609,-175 365.7609,-175 365.7609,-205.9775 365.7609,-205.9775"/>
<polygon fill="#000000" stroke="#000000" points="362.261,-205.9774 365.7609,-215.9775 369.261,-205.9775 362.261,-205.9774"/>
</g>
<!-- HeaderComponent  -->
<g id="node6" class="node">
<title>HeaderComponent </title>
<polygon fill="#fb8072" stroke="#000000" points="310.7436,-252 185.2564,-252 185.2564,-216 310.7436,-216 310.7436,-252"/>
<text text-anchor="middle" x="248" y="-229.8" font-family="Times,serif" font-size="14.00" fill="#000000">HeaderComponent </text>
</g>
<!-- ComponentsModule&#45;&gt;HeaderComponent  -->
<g id="edge5" class="edge">
<title>ComponentsModule&#45;&gt;HeaderComponent </title>
<path fill="none" stroke="#000000" stroke-dasharray="5,2" d="M248,-187.1061C248,-187.1061 248,-205.991 248,-205.991"/>
<polygon fill="#000000" stroke="#000000" points="244.5001,-205.9909 248,-215.991 251.5001,-205.991 244.5001,-205.9909"/>
</g>
<!-- TableComponent  -->
<g id="node7" class="node">
<title>TableComponent </title>
<polygon fill="#fb8072" stroke="#000000" points="167.2052,-252 50.7948,-252 50.7948,-216 167.2052,-216 167.2052,-252"/>
<text text-anchor="middle" x="109" y="-229.8" font-family="Times,serif" font-size="14.00" fill="#000000">TableComponent </text>
</g>
<!-- ComponentsModule&#45;&gt;TableComponent  -->
<g id="edge6" class="edge">
<title>ComponentsModule&#45;&gt;TableComponent </title>
<path fill="none" stroke="#000000" stroke-dasharray="5,2" d="M182.4283,-175C140.2873,-175 93.3825,-175 93.3825,-175 93.3825,-175 93.3825,-205.9775 93.3825,-205.9775"/>
<polygon fill="#000000" stroke="#000000" points="89.8826,-205.9774 93.3825,-215.9775 96.8826,-205.9775 89.8826,-205.9774"/>
</g>
</g>
</svg>
