<?xml version="1.0" encoding="UTF-8" standalone="no"?>
<!DOCTYPE svg PUBLIC "-//W3C//DTD SVG 1.1//EN"
 "http://www.w3.org/Graphics/SVG/1.1/DTD/svg11.dtd">
<!-- Generated by graphviz version 2.40.1 (20161225.0304)
 -->
<!-- Title: dependencies Pages: 1 -->
<svg width="504pt" height="211pt"
 viewBox="0.00 0.00 504.00 211.00" xmlns="http://www.w3.org/2000/svg" xmlns:xlink="http://www.w3.org/1999/xlink">
<g id="graph0" class="graph" transform="scale(1 1) rotate(0) translate(4 207)">
<title>dependencies</title>
<polygon fill="#ffffff" stroke="transparent" points="-4,4 -4,-207 500,-207 500,4 -4,4"/>
<text text-anchor="start" x="227.0091" y="-42.4" font-family="sans-serif" font-weight="bold" font-size="14.00" fill="#000000">Legend</text>
<polygon fill="#ffffb3" stroke="transparent" points="14,-10 14,-30 34,-30 34,-10 14,-10"/>
<text text-anchor="start" x="37.629" y="-15.4" font-family="sans-serif" font-size="14.00" fill="#000000"> &#160;Declarations</text>
<polygon fill="#8dd3c7" stroke="transparent" points="127,-10 127,-30 147,-30 147,-10 127,-10"/>
<text text-anchor="start" x="150.7251" y="-15.4" font-family="sans-serif" font-size="14.00" fill="#000000"> &#160;Module</text>
<polygon fill="#80b1d3" stroke="transparent" points="213,-10 213,-30 233,-30 233,-10 213,-10"/>
<text text-anchor="start" x="236.7812" y="-15.4" font-family="sans-serif" font-size="14.00" fill="#000000"> &#160;Bootstrap</text>
<polygon fill="#fdb462" stroke="transparent" points="310,-10 310,-30 330,-30 330,-10 310,-10"/>
<text text-anchor="start" x="333.6732" y="-15.4" font-family="sans-serif" font-size="14.00" fill="#000000"> &#160;Providers</text>
<polygon fill="#fb8072" stroke="transparent" points="406,-10 406,-30 426,-30 426,-10 406,-10"/>
<text text-anchor="start" x="429.7258" y="-15.4" font-family="sans-serif" font-size="14.00" fill="#000000"> &#160;Exports</text>
<g id="clust1" class="cluster">
<title>cluster_Tab1PageModule</title>
<polygon fill="none" stroke="#000000" stroke-dasharray="1,5" points="126,-70 126,-195 370,-195 370,-70 126,-70"/>
</g>
<g id="clust2" class="cluster">
<title>cluster_Tab1PageModule_declarations</title>
<polygon fill="none" stroke="#000000" points="274,-78 274,-130 362,-130 362,-78 274,-78"/>
</g>
<g id="clust7" class="cluster">
<title>cluster_Tab1PageModule_providers</title>
<polygon fill="none" stroke="#000000" points="134,-78 134,-130 266,-130 266,-78 134,-78"/>
</g>
<!-- Tab1Page -->
<g id="node1" class="node">
<title>Tab1Page</title>
<polygon fill="#ffffb3" stroke="#000000" points="353.979,-122 282.021,-122 282.021,-86 353.979,-86 353.979,-122"/>
<text text-anchor="middle" x="318" y="-99.8" font-family="Times,serif" font-size="14.00" fill="#000000">Tab1Page</text>
</g>
<!-- Tab1PageModule -->
<g id="node2" class="node">
<title>Tab1PageModule</title>
<polygon fill="#8dd3c7" stroke="#000000" points="309.5298,-187 306.5298,-191 285.5298,-191 282.5298,-187 194.4702,-187 194.4702,-151 309.5298,-151 309.5298,-187"/>
<text text-anchor="middle" x="252" y="-164.8" font-family="Times,serif" font-size="14.00" fill="#000000">Tab1PageModule</text>
</g>
<!-- Tab1Page&#45;&gt;Tab1PageModule -->
<g id="edge1" class="edge">
<title>Tab1Page&#45;&gt;Tab1PageModule</title>
<path fill="none" stroke="#000000" d="M295.8875,-122.1061C295.8875,-122.1061 295.8875,-140.991 295.8875,-140.991"/>
<polygon fill="#000000" stroke="#000000" points="292.3875,-140.9909 295.8875,-150.991 299.3875,-140.991 292.3875,-140.9909"/>
</g>
<!-- MapService -->
<g id="node3" class="node">
<title>MapService</title>
<ellipse fill="#fdb462" stroke="#000000" cx="200" cy="-104" rx="57.8829" ry="18"/>
<text text-anchor="middle" x="200" y="-99.8" font-family="Times,serif" font-size="14.00" fill="#000000">MapService</text>
</g>
<!-- MapService&#45;&gt;Tab1PageModule -->
<g id="edge2" class="edge">
<title>MapService&#45;&gt;Tab1PageModule</title>
<path fill="none" stroke="#000000" d="M225.9634,-120.4022C225.9634,-120.4022 225.9634,-140.5366 225.9634,-140.5366"/>
<polygon fill="#000000" stroke="#000000" points="222.4635,-140.5366 225.9634,-150.5366 229.4635,-140.5367 222.4635,-140.5366"/>
</g>
</g>
</svg>
