<?xml version="1.0" encoding="UTF-8" standalone="no"?>
<!DOCTYPE svg PUBLIC "-//W3C//DTD SVG 1.1//EN"
 "http://www.w3.org/Graphics/SVG/1.1/DTD/svg11.dtd">
<!-- Generated by graphviz version 2.40.1 (20161225.0304)
 -->
<!-- Title: dependencies Pages: 1 -->
<svg width="504pt" height="211pt"
 viewBox="0.00 0.00 504.00 211.00" xmlns="http://www.w3.org/2000/svg" xmlns:xlink="http://www.w3.org/1999/xlink">
<g id="graph0" class="graph" transform="scale(1 1) rotate(0) translate(4 207)">
<title>dependencies</title>
<polygon fill="#ffffff" stroke="transparent" points="-4,4 -4,-207 500,-207 500,4 -4,4"/>
<text text-anchor="start" x="227.0091" y="-42.4" font-family="sans-serif" font-weight="bold" font-size="14.00" fill="#000000">Legend</text>
<polygon fill="#ffffb3" stroke="transparent" points="14,-10 14,-30 34,-30 34,-10 14,-10"/>
<text text-anchor="start" x="37.629" y="-15.4" font-family="sans-serif" font-size="14.00" fill="#000000"> &#160;Declarations</text>
<polygon fill="#8dd3c7" stroke="transparent" points="127,-10 127,-30 147,-30 147,-10 127,-10"/>
<text text-anchor="start" x="150.7251" y="-15.4" font-family="sans-serif" font-size="14.00" fill="#000000"> &#160;Module</text>
<polygon fill="#80b1d3" stroke="transparent" points="213,-10 213,-30 233,-30 233,-10 213,-10"/>
<text text-anchor="start" x="236.7812" y="-15.4" font-family="sans-serif" font-size="14.00" fill="#000000"> &#160;Bootstrap</text>
<polygon fill="#fdb462" stroke="transparent" points="310,-10 310,-30 330,-30 330,-10 310,-10"/>
<text text-anchor="start" x="333.6732" y="-15.4" font-family="sans-serif" font-size="14.00" fill="#000000"> &#160;Providers</text>
<polygon fill="#fb8072" stroke="transparent" points="406,-10 406,-30 426,-30 426,-10 406,-10"/>
<text text-anchor="start" x="429.7258" y="-15.4" font-family="sans-serif" font-size="14.00" fill="#000000"> &#160;Exports</text>
<g id="clust1" class="cluster">
<title>cluster_UnauthorizedPageModule</title>
<polygon fill="none" stroke="#000000" stroke-dasharray="1,5" points="101,-70 101,-195 395,-195 395,-70 101,-70"/>
</g>
<g id="clust2" class="cluster">
<title>cluster_UnauthorizedPageModule_declarations</title>
<polygon fill="none" stroke="#000000" points="251,-78 251,-130 387,-130 387,-78 251,-78"/>
</g>
<g id="clust7" class="cluster">
<title>cluster_UnauthorizedPageModule_providers</title>
<polygon fill="none" stroke="#000000" points="109,-78 109,-130 243,-130 243,-78 109,-78"/>
</g>
<!-- UnauthorizedPage -->
<g id="node1" class="node">
<title>UnauthorizedPage</title>
<polygon fill="#ffffb3" stroke="#000000" points="378.9047,-122 259.0953,-122 259.0953,-86 378.9047,-86 378.9047,-122"/>
<text text-anchor="middle" x="319" y="-99.8" font-family="Times,serif" font-size="14.00" fill="#000000">UnauthorizedPage</text>
</g>
<!-- UnauthorizedPageModule -->
<g id="node2" class="node">
<title>UnauthorizedPageModule</title>
<polygon fill="#8dd3c7" stroke="#000000" points="329.4538,-187 326.4538,-191 305.4538,-191 302.4538,-187 166.5462,-187 166.5462,-151 329.4538,-151 329.4538,-187"/>
<text text-anchor="middle" x="248" y="-164.8" font-family="Times,serif" font-size="14.00" fill="#000000">UnauthorizedPageModule</text>
</g>
<!-- UnauthorizedPage&#45;&gt;UnauthorizedPageModule -->
<g id="edge1" class="edge">
<title>UnauthorizedPage&#45;&gt;UnauthorizedPageModule</title>
<path fill="none" stroke="#000000" d="M294.3875,-122.1061C294.3875,-122.1061 294.3875,-140.991 294.3875,-140.991"/>
<polygon fill="#000000" stroke="#000000" points="290.8875,-140.9909 294.3875,-150.991 297.8875,-140.991 290.8875,-140.9909"/>
</g>
<!-- AuthService -->
<g id="node3" class="node">
<title>AuthService</title>
<ellipse fill="#fdb462" stroke="#000000" cx="176" cy="-104" rx="59.1083" ry="18"/>
<text text-anchor="middle" x="176" y="-99.8" font-family="Times,serif" font-size="14.00" fill="#000000">AuthService</text>
</g>
<!-- AuthService&#45;&gt;UnauthorizedPageModule -->
<g id="edge2" class="edge">
<title>AuthService&#45;&gt;UnauthorizedPageModule</title>
<path fill="none" stroke="#000000" d="M200.9135,-120.4022C200.9135,-120.4022 200.9135,-140.5366 200.9135,-140.5366"/>
<polygon fill="#000000" stroke="#000000" points="197.4136,-140.5366 200.9135,-150.5366 204.4136,-140.5367 197.4136,-140.5366"/>
</g>
</g>
</svg>
