<?xml version="1.0" encoding="UTF-8" standalone="no"?>
<!DOCTYPE svg PUBLIC "-//W3C//DTD SVG 1.1//EN"
 "http://www.w3.org/Graphics/SVG/1.1/DTD/svg11.dtd">
<!-- Generated by graphviz version 2.40.1 (20161225.0304)
 -->
<!-- Title: dependencies Pages: 1 -->
<svg width="504pt" height="211pt"
 viewBox="0.00 0.00 504.00 211.00" xmlns="http://www.w3.org/2000/svg" xmlns:xlink="http://www.w3.org/1999/xlink">
<g id="graph0" class="graph" transform="scale(1 1) rotate(0) translate(4 207)">
<title>dependencies</title>
<polygon fill="#ffffff" stroke="transparent" points="-4,4 -4,-207 500,-207 500,4 -4,4"/>
<text text-anchor="start" x="227.0091" y="-42.4" font-family="sans-serif" font-weight="bold" font-size="14.00" fill="#000000">Legend</text>
<polygon fill="#ffffb3" stroke="transparent" points="14,-10 14,-30 34,-30 34,-10 14,-10"/>
<text text-anchor="start" x="37.629" y="-15.4" font-family="sans-serif" font-size="14.00" fill="#000000"> &#160;Declarations</text>
<polygon fill="#8dd3c7" stroke="transparent" points="127,-10 127,-30 147,-30 147,-10 127,-10"/>
<text text-anchor="start" x="150.7251" y="-15.4" font-family="sans-serif" font-size="14.00" fill="#000000"> &#160;Module</text>
<polygon fill="#80b1d3" stroke="transparent" points="213,-10 213,-30 233,-30 233,-10 213,-10"/>
<text text-anchor="start" x="236.7812" y="-15.4" font-family="sans-serif" font-size="14.00" fill="#000000"> &#160;Bootstrap</text>
<polygon fill="#fdb462" stroke="transparent" points="310,-10 310,-30 330,-30 330,-10 310,-10"/>
<text text-anchor="start" x="333.6732" y="-15.4" font-family="sans-serif" font-size="14.00" fill="#000000"> &#160;Providers</text>
<polygon fill="#fb8072" stroke="transparent" points="406,-10 406,-30 426,-30 426,-10 406,-10"/>
<text text-anchor="start" x="429.7258" y="-15.4" font-family="sans-serif" font-size="14.00" fill="#000000"> &#160;Exports</text>
<g id="clust1" class="cluster">
<title>cluster_PreparationsModule</title>
<polygon fill="none" stroke="#000000" stroke-dasharray="1,5" points="89,-70 89,-195 407,-195 407,-70 89,-70"/>
</g>
<g id="clust3" class="cluster">
<title>cluster_PreparationsModule_imports</title>
<polygon fill="none" stroke="#000000" points="297,-78 297,-130 399,-130 399,-78 297,-78"/>
</g>
<g id="clust6" class="cluster">
<title>cluster_PreparationsModule_providers</title>
<polygon fill="none" stroke="#000000" points="97,-78 97,-130 289,-130 289,-78 97,-78"/>
</g>
<!-- UserModule -->
<g id="node1" class="node">
<title>UserModule</title>
<polygon fill="#8dd3c7" stroke="#000000" points="390.9762,-122 387.9762,-126 366.9762,-126 363.9762,-122 305.0238,-122 305.0238,-86 390.9762,-86 390.9762,-122"/>
<text text-anchor="middle" x="348" y="-99.8" font-family="Times,serif" font-size="14.00" fill="#000000">UserModule</text>
</g>
<!-- PreparationsModule -->
<g id="node2" class="node">
<title>PreparationsModule</title>
<polygon fill="#8dd3c7" stroke="#000000" points="327.5241,-187 324.5241,-191 303.5241,-191 300.5241,-187 198.4759,-187 198.4759,-151 327.5241,-151 327.5241,-187"/>
<text text-anchor="middle" x="263" y="-164.8" font-family="Times,serif" font-size="14.00" fill="#000000">PreparationsModule</text>
</g>
<!-- UserModule&#45;&gt;PreparationsModule -->
<g id="edge1" class="edge">
<title>UserModule&#45;&gt;PreparationsModule</title>
<path fill="none" stroke="#000000" d="M316.3868,-122.1061C316.3868,-122.1061 316.3868,-140.991 316.3868,-140.991"/>
<polygon fill="#000000" stroke="#000000" points="312.8868,-140.9909 316.3868,-150.991 319.8868,-140.991 312.8868,-140.9909"/>
</g>
<!-- PreparationsService -->
<g id="node3" class="node">
<title>PreparationsService</title>
<ellipse fill="#fdb462" stroke="#000000" cx="193" cy="-104" rx="88.0172" ry="18"/>
<text text-anchor="middle" x="193" y="-99.8" font-family="Times,serif" font-size="14.00" fill="#000000">PreparationsService</text>
</g>
<!-- PreparationsService&#45;&gt;PreparationsModule -->
<g id="edge2" class="edge">
<title>PreparationsService&#45;&gt;PreparationsModule</title>
<path fill="none" stroke="#000000" d="M239.7483,-119.4041C239.7483,-119.4041 239.7483,-140.9397 239.7483,-140.9397"/>
<polygon fill="#000000" stroke="#000000" points="236.2484,-140.9397 239.7483,-150.9397 243.2484,-140.9398 236.2484,-140.9397"/>
</g>
</g>
</svg>
