<?xml version="1.0" encoding="UTF-8" standalone="no"?>
<!DOCTYPE svg PUBLIC "-//W3C//DTD SVG 1.1//EN"
 "http://www.w3.org/Graphics/SVG/1.1/DTD/svg11.dtd">
<!-- Generated by graphviz version 2.40.1 (20161225.0304)
 -->
<!-- Title: dependencies Pages: 1 -->
<svg width="650pt" height="211pt"
 viewBox="0.00 0.00 650.00 211.00" xmlns="http://www.w3.org/2000/svg" xmlns:xlink="http://www.w3.org/1999/xlink">
<g id="graph0" class="graph" transform="scale(1 1) rotate(0) translate(4 207)">
<title>dependencies</title>
<polygon fill="#ffffff" stroke="transparent" points="-4,4 -4,-207 646,-207 646,4 -4,4"/>
<text text-anchor="start" x="300.0091" y="-42.4" font-family="sans-serif" font-weight="bold" font-size="14.00" fill="#000000">Legend</text>
<polygon fill="#ffffb3" stroke="transparent" points="87,-10 87,-30 107,-30 107,-10 87,-10"/>
<text text-anchor="start" x="110.629" y="-15.4" font-family="sans-serif" font-size="14.00" fill="#000000"> &#160;Declarations</text>
<polygon fill="#8dd3c7" stroke="transparent" points="200,-10 200,-30 220,-30 220,-10 200,-10"/>
<text text-anchor="start" x="223.7251" y="-15.4" font-family="sans-serif" font-size="14.00" fill="#000000"> &#160;Module</text>
<polygon fill="#80b1d3" stroke="transparent" points="286,-10 286,-30 306,-30 306,-10 286,-10"/>
<text text-anchor="start" x="309.7812" y="-15.4" font-family="sans-serif" font-size="14.00" fill="#000000"> &#160;Bootstrap</text>
<polygon fill="#fdb462" stroke="transparent" points="383,-10 383,-30 403,-30 403,-10 383,-10"/>
<text text-anchor="start" x="406.6732" y="-15.4" font-family="sans-serif" font-size="14.00" fill="#000000"> &#160;Providers</text>
<polygon fill="#fb8072" stroke="transparent" points="479,-10 479,-30 499,-30 499,-10 479,-10"/>
<text text-anchor="start" x="502.7258" y="-15.4" font-family="sans-serif" font-size="14.00" fill="#000000"> &#160;Exports</text>
<g id="clust1" class="cluster">
<title>cluster_AppModule</title>
<polygon fill="none" stroke="#000000" stroke-dasharray="1,5" points="8,-70 8,-195 634,-195 634,-70 8,-70"/>
</g>
<g id="clust3" class="cluster">
<title>cluster_AppModule_imports</title>
<polygon fill="none" stroke="#000000" points="16,-78 16,-130 626,-130 626,-78 16,-78"/>
</g>
<!-- AuthModule -->
<g id="node1" class="node">
<title>AuthModule</title>
<polygon fill="#8dd3c7" stroke="#000000" points="617.5482,-122 614.5482,-126 593.5482,-126 590.5482,-122 530.4518,-122 530.4518,-86 617.5482,-86 617.5482,-122"/>
<text text-anchor="middle" x="574" y="-99.8" font-family="Times,serif" font-size="14.00" fill="#000000">AuthModule</text>
</g>
<!-- AppModule -->
<g id="node6" class="node">
<title>AppModule</title>
<polygon fill="#8dd3c7" stroke="#000000" points="358.6571,-187 355.6571,-191 334.6571,-191 331.6571,-187 275.3429,-187 275.3429,-151 358.6571,-151 358.6571,-187"/>
<text text-anchor="middle" x="317" y="-164.8" font-family="Times,serif" font-size="14.00" fill="#000000">AppModule</text>
</g>
<!-- AuthModule&#45;&gt;AppModule -->
<g id="edge1" class="edge">
<title>AuthModule&#45;&gt;AppModule</title>
<path fill="none" stroke="#000000" d="M574,-122.2843C574,-143.3211 574,-175 574,-175 574,-175 368.8635,-175 368.8635,-175"/>
<polygon fill="#000000" stroke="#000000" points="368.8635,-171.5001 358.8635,-175 368.8634,-178.5001 368.8635,-171.5001"/>
</g>
<!-- HospitalsModule -->
<g id="node2" class="node">
<title>HospitalsModule</title>
<polygon fill="#8dd3c7" stroke="#000000" points="512.4328,-122 509.4328,-126 488.4328,-126 485.4328,-122 399.5672,-122 399.5672,-86 512.4328,-86 512.4328,-122"/>
<text text-anchor="middle" x="456" y="-99.8" font-family="Times,serif" font-size="14.00" fill="#000000">HospitalsModule</text>
</g>
<!-- HospitalsModule&#45;&gt;AppModule -->
<g id="edge2" class="edge">
<title>HospitalsModule&#45;&gt;AppModule</title>
<path fill="none" stroke="#000000" d="M456,-122.0225C456,-139.3734 456,-163 456,-163 456,-163 368.7046,-163 368.7046,-163"/>
<polygon fill="#000000" stroke="#000000" points="368.7046,-159.5001 358.7046,-163 368.7045,-166.5001 368.7046,-159.5001"/>
</g>
<!-- PreparationsModule -->
<g id="node3" class="node">
<title>PreparationsModule</title>
<polygon fill="#8dd3c7" stroke="#000000" points="381.5241,-122 378.5241,-126 357.5241,-126 354.5241,-122 252.4759,-122 252.4759,-86 381.5241,-86 381.5241,-122"/>
<text text-anchor="middle" x="317" y="-99.8" font-family="Times,serif" font-size="14.00" fill="#000000">PreparationsModule</text>
</g>
<!-- PreparationsModule&#45;&gt;AppModule -->
<g id="edge3" class="edge">
<title>PreparationsModule&#45;&gt;AppModule</title>
<path fill="none" stroke="#000000" d="M317,-122.1061C317,-122.1061 317,-140.991 317,-140.991"/>
<polygon fill="#000000" stroke="#000000" points="313.5001,-140.9909 317,-150.991 320.5001,-140.991 313.5001,-140.9909"/>
</g>
<!-- RankingModule -->
<g id="node4" class="node">
<title>RankingModule</title>
<polygon fill="#8dd3c7" stroke="#000000" points="234.4916,-122 231.4916,-126 210.4916,-126 207.4916,-122 127.5084,-122 127.5084,-86 234.4916,-86 234.4916,-122"/>
<text text-anchor="middle" x="181" y="-99.8" font-family="Times,serif" font-size="14.00" fill="#000000">RankingModule</text>
</g>
<!-- RankingModule&#45;&gt;AppModule -->
<g id="edge4" class="edge">
<title>RankingModule&#45;&gt;AppModule</title>
<path fill="none" stroke="#000000" d="M181,-122.0225C181,-139.3734 181,-163 181,-163 181,-163 265.0858,-163 265.0858,-163"/>
<polygon fill="#000000" stroke="#000000" points="265.0858,-166.5001 275.0858,-163 265.0858,-159.5001 265.0858,-166.5001"/>
</g>
<!-- UserModule -->
<g id="node5" class="node">
<title>UserModule</title>
<polygon fill="#8dd3c7" stroke="#000000" points="109.9762,-122 106.9762,-126 85.9762,-126 82.9762,-122 24.0238,-122 24.0238,-86 109.9762,-86 109.9762,-122"/>
<text text-anchor="middle" x="67" y="-99.8" font-family="Times,serif" font-size="14.00" fill="#000000">UserModule</text>
</g>
<!-- UserModule&#45;&gt;AppModule -->
<g id="edge5" class="edge">
<title>UserModule&#45;&gt;AppModule</title>
<path fill="none" stroke="#000000" d="M67,-122.2843C67,-143.3211 67,-175 67,-175 67,-175 265.1556,-175 265.1556,-175"/>
<polygon fill="#000000" stroke="#000000" points="265.1557,-178.5001 275.1556,-175 265.1556,-171.5001 265.1557,-178.5001"/>
</g>
</g>
</svg>
