<?xml version="1.0" encoding="UTF-8" standalone="no"?>
<!DOCTYPE svg PUBLIC "-//W3C//DTD SVG 1.1//EN"
 "http://www.w3.org/Graphics/SVG/1.1/DTD/svg11.dtd">
<!-- Generated by graphviz version 2.40.1 (20161225.0304)
 -->
<!-- Title: dependencies Pages: 1 -->
<svg width="504pt" height="211pt"
 viewBox="0.00 0.00 504.00 211.00" xmlns="http://www.w3.org/2000/svg" xmlns:xlink="http://www.w3.org/1999/xlink">
<g id="graph0" class="graph" transform="scale(1 1) rotate(0) translate(4 207)">
<title>dependencies</title>
<polygon fill="#ffffff" stroke="transparent" points="-4,4 -4,-207 500,-207 500,4 -4,4"/>
<text text-anchor="start" x="227.0091" y="-42.4" font-family="sans-serif" font-weight="bold" font-size="14.00" fill="#000000">Legend</text>
<polygon fill="#ffffb3" stroke="transparent" points="14,-10 14,-30 34,-30 34,-10 14,-10"/>
<text text-anchor="start" x="37.629" y="-15.4" font-family="sans-serif" font-size="14.00" fill="#000000"> &#160;Declarations</text>
<polygon fill="#8dd3c7" stroke="transparent" points="127,-10 127,-30 147,-30 147,-10 127,-10"/>
<text text-anchor="start" x="150.7251" y="-15.4" font-family="sans-serif" font-size="14.00" fill="#000000"> &#160;Module</text>
<polygon fill="#80b1d3" stroke="transparent" points="213,-10 213,-30 233,-30 233,-10 213,-10"/>
<text text-anchor="start" x="236.7812" y="-15.4" font-family="sans-serif" font-size="14.00" fill="#000000"> &#160;Bootstrap</text>
<polygon fill="#fdb462" stroke="transparent" points="310,-10 310,-30 330,-30 330,-10 310,-10"/>
<text text-anchor="start" x="333.6732" y="-15.4" font-family="sans-serif" font-size="14.00" fill="#000000"> &#160;Providers</text>
<polygon fill="#fb8072" stroke="transparent" points="406,-10 406,-30 426,-30 426,-10 406,-10"/>
<text text-anchor="start" x="429.7258" y="-15.4" font-family="sans-serif" font-size="14.00" fill="#000000"> &#160;Exports</text>
<g id="clust1" class="cluster">
<title>cluster_RankingModule</title>
<polygon fill="none" stroke="#000000" stroke-dasharray="1,5" points="19,-70 19,-195 477,-195 477,-70 19,-70"/>
</g>
<g id="clust3" class="cluster">
<title>cluster_RankingModule_imports</title>
<polygon fill="none" stroke="#000000" points="367,-78 367,-130 469,-130 469,-78 367,-78"/>
</g>
<g id="clust6" class="cluster">
<title>cluster_RankingModule_providers</title>
<polygon fill="none" stroke="#000000" points="27,-78 27,-130 359,-130 359,-78 27,-78"/>
</g>
<!-- UserModule -->
<g id="node1" class="node">
<title>UserModule</title>
<polygon fill="#8dd3c7" stroke="#000000" points="460.9762,-122 457.9762,-126 436.9762,-126 433.9762,-122 375.0238,-122 375.0238,-86 460.9762,-86 460.9762,-122"/>
<text text-anchor="middle" x="418" y="-99.8" font-family="Times,serif" font-size="14.00" fill="#000000">UserModule</text>
</g>
<!-- RankingModule -->
<g id="node2" class="node">
<title>RankingModule</title>
<polygon fill="#8dd3c7" stroke="#000000" points="328.4916,-187 325.4916,-191 304.4916,-191 301.4916,-187 221.5084,-187 221.5084,-151 328.4916,-151 328.4916,-187"/>
<text text-anchor="middle" x="275" y="-164.8" font-family="Times,serif" font-size="14.00" fill="#000000">RankingModule</text>
</g>
<!-- UserModule&#45;&gt;RankingModule -->
<g id="edge1" class="edge">
<title>UserModule&#45;&gt;RankingModule</title>
<path fill="none" stroke="#000000" d="M418,-122.1061C418,-141.3391 418,-169 418,-169 418,-169 338.6548,-169 338.6548,-169"/>
<polygon fill="#000000" stroke="#000000" points="338.6548,-165.5001 328.6548,-169 338.6547,-172.5001 338.6548,-165.5001"/>
</g>
<!-- HospitalsService -->
<g id="node3" class="node">
<title>HospitalsService</title>
<ellipse fill="#fdb462" stroke="#000000" cx="275" cy="-104" rx="76.4381" ry="18"/>
<text text-anchor="middle" x="275" y="-99.8" font-family="Times,serif" font-size="14.00" fill="#000000">HospitalsService</text>
</g>
<!-- HospitalsService&#45;&gt;RankingModule -->
<g id="edge2" class="edge">
<title>HospitalsService&#45;&gt;RankingModule</title>
<path fill="none" stroke="#000000" d="M275,-122.1061C275,-122.1061 275,-140.991 275,-140.991"/>
<polygon fill="#000000" stroke="#000000" points="271.5001,-140.9909 275,-150.991 278.5001,-140.991 271.5001,-140.9909"/>
</g>
<!-- RankingService -->
<g id="node4" class="node">
<title>RankingService</title>
<ellipse fill="#fdb462" stroke="#000000" cx="108" cy="-104" rx="72.9334" ry="18"/>
<text text-anchor="middle" x="108" y="-99.8" font-family="Times,serif" font-size="14.00" fill="#000000">RankingService</text>
</g>
<!-- RankingService&#45;&gt;RankingModule -->
<g id="edge3" class="edge">
<title>RankingService&#45;&gt;RankingModule</title>
<path fill="none" stroke="#000000" d="M108,-122.1061C108,-141.3391 108,-169 108,-169 108,-169 211.2409,-169 211.2409,-169"/>
<polygon fill="#000000" stroke="#000000" points="211.2409,-172.5001 221.2409,-169 211.2409,-165.5001 211.2409,-172.5001"/>
</g>
</g>
</svg>
