<?xml version="1.0" encoding="UTF-8" standalone="no"?>
<!DOCTYPE svg PUBLIC "-//W3C//DTD SVG 1.1//EN"
 "http://www.w3.org/Graphics/SVG/1.1/DTD/svg11.dtd">
<!-- Generated by graphviz version 2.40.1 (20161225.0304)
 -->
<!-- Title: dependencies Pages: 1 -->
<svg width="504pt" height="211pt"
 viewBox="0.00 0.00 504.00 211.00" xmlns="http://www.w3.org/2000/svg" xmlns:xlink="http://www.w3.org/1999/xlink">
<g id="graph0" class="graph" transform="scale(1 1) rotate(0) translate(4 207)">
<title>dependencies</title>
<polygon fill="#ffffff" stroke="transparent" points="-4,4 -4,-207 500,-207 500,4 -4,4"/>
<text text-anchor="start" x="227.0091" y="-42.4" font-family="sans-serif" font-weight="bold" font-size="14.00" fill="#000000">Legend</text>
<polygon fill="#ffffb3" stroke="transparent" points="14,-10 14,-30 34,-30 34,-10 14,-10"/>
<text text-anchor="start" x="37.629" y="-15.4" font-family="sans-serif" font-size="14.00" fill="#000000"> &#160;Declarations</text>
<polygon fill="#8dd3c7" stroke="transparent" points="127,-10 127,-30 147,-30 147,-10 127,-10"/>
<text text-anchor="start" x="150.7251" y="-15.4" font-family="sans-serif" font-size="14.00" fill="#000000"> &#160;Module</text>
<polygon fill="#80b1d3" stroke="transparent" points="213,-10 213,-30 233,-30 233,-10 213,-10"/>
<text text-anchor="start" x="236.7812" y="-15.4" font-family="sans-serif" font-size="14.00" fill="#000000"> &#160;Bootstrap</text>
<polygon fill="#fdb462" stroke="transparent" points="310,-10 310,-30 330,-30 330,-10 310,-10"/>
<text text-anchor="start" x="333.6732" y="-15.4" font-family="sans-serif" font-size="14.00" fill="#000000"> &#160;Providers</text>
<polygon fill="#fb8072" stroke="transparent" points="406,-10 406,-30 426,-30 426,-10 406,-10"/>
<text text-anchor="start" x="429.7258" y="-15.4" font-family="sans-serif" font-size="14.00" fill="#000000"> &#160;Exports</text>
<g id="clust1" class="cluster">
<title>cluster_Tab2PageModule</title>
<polygon fill="none" stroke="#000000" stroke-dasharray="1,5" points="125,-70 125,-195 371,-195 371,-70 125,-70"/>
</g>
<g id="clust2" class="cluster">
<title>cluster_Tab2PageModule_declarations</title>
<polygon fill="none" stroke="#000000" points="275,-78 275,-130 363,-130 363,-78 275,-78"/>
</g>
<g id="clust4" class="cluster">
<title>cluster_Tab2PageModule_imports</title>
<polygon fill="none" stroke="#000000" points="133,-78 133,-130 267,-130 267,-78 133,-78"/>
</g>
<!-- Tab2Page -->
<g id="node1" class="node">
<title>Tab2Page</title>
<polygon fill="#ffffb3" stroke="#000000" points="354.979,-122 283.021,-122 283.021,-86 354.979,-86 354.979,-122"/>
<text text-anchor="middle" x="319" y="-99.8" font-family="Times,serif" font-size="14.00" fill="#000000">Tab2Page</text>
</g>
<!-- Tab2PageModule -->
<g id="node2" class="node">
<title>Tab2PageModule</title>
<polygon fill="#8dd3c7" stroke="#000000" points="309.5298,-187 306.5298,-191 285.5298,-191 282.5298,-187 194.4702,-187 194.4702,-151 309.5298,-151 309.5298,-187"/>
<text text-anchor="middle" x="252" y="-164.8" font-family="Times,serif" font-size="14.00" fill="#000000">Tab2PageModule</text>
</g>
<!-- Tab2Page&#45;&gt;Tab2PageModule -->
<g id="edge1" class="edge">
<title>Tab2Page&#45;&gt;Tab2PageModule</title>
<path fill="none" stroke="#000000" d="M296.3875,-122.1061C296.3875,-122.1061 296.3875,-140.991 296.3875,-140.991"/>
<polygon fill="#000000" stroke="#000000" points="292.8875,-140.9909 296.3875,-150.991 299.8875,-140.991 292.8875,-140.9909"/>
</g>
<!-- ChartPageModule -->
<g id="node3" class="node">
<title>ChartPageModule</title>
<polygon fill="#8dd3c7" stroke="#000000" points="258.8641,-122 255.8641,-126 234.8641,-126 231.8641,-122 141.1359,-122 141.1359,-86 258.8641,-86 258.8641,-122"/>
<text text-anchor="middle" x="200" y="-99.8" font-family="Times,serif" font-size="14.00" fill="#000000">ChartPageModule</text>
</g>
<!-- ChartPageModule&#45;&gt;Tab2PageModule -->
<g id="edge2" class="edge">
<title>ChartPageModule&#45;&gt;Tab2PageModule</title>
<path fill="none" stroke="#000000" d="M226.5838,-122.1061C226.5838,-122.1061 226.5838,-140.991 226.5838,-140.991"/>
<polygon fill="#000000" stroke="#000000" points="223.0839,-140.9909 226.5838,-150.991 230.0839,-140.991 223.0839,-140.9909"/>
</g>
</g>
</svg>
